<?xml version="1.0" encoding="utf-8"?>
<svg xmlns="http://www.w3.org/2000/svg" xmlns:svg="http://www.w3.org/2000/svg" version="1.1" viewBox="0 0 1400 440">
	<title>The titlepage for the Standard Ebooks edition of Bulfinch’s Mythology, by Thomas Bulfinch</title>
	<g aria-label="BULFINCH’S">
		<path d="M 396.6557,52.807016 V 130 h 29.28655 c 16,0 25.26316,-8.79532 25.26316,-21.52047 0,-12.444443 -6.83041,-17.777776 -16.46784,-19.461987 6.54971,-3.368421 9.63743,-9.450292 9.63743,-16.561404 0,-14.690058 -10.47954,-19.649123 -23.76609,-19.649123 z m 17.59064,30.222223 V 66.374268 h 1.40351 c 7.67251,0 11.69591,2.339181 11.69591,7.859649 0,6.456141 -4.11696,8.795322 -11.69591,8.795322 z m 0,33.403511 V 98.187134 h 5.52047 c 8.32748,0 12.91228,2.526316 12.91228,9.637426 0,6.08187 -4.5848,8.60819 -12.91228,8.60819 z"/>
		<path d="m 523.29459,52.807016 h -17.59065 v 44.63158 c 0,12.912284 -3.92982,16.654974 -12.53801,16.654974 -8.60818,0 -12.53801,-3.74269 -12.53801,-16.654974 v -44.63158 h -17.59064 v 49.777774 c 0,19.08772 10.47953,28.81872 30.12865,28.81872 19.64913,0 30.12866,-9.731 30.12866,-28.81872 z"/>
		<path d="M 556.1908,52.807016 H 538.60015 V 130 h 44.16375 v -15.4386 h -26.5731 z"/>
		<path d="M 641.04605,52.807016 H 596.41447 V 130 h 17.59064 V 99.029239 h 24.98246 V 83.590642 H 614.00511 V 68.245613 h 27.04094 z"/>
		<path d="M 672.0022,52.807016 H 654.41156 V 130 h 17.59064 z"/>
		<path d="m 705.87647,82.093566 h 0.18713 L 736.75366,130 H 754.3443 V 52.807016 h -17.59064 v 47.906434 h -0.18713 L 705.87647,52.807016 H 688.28582 V 130 h 17.59065 z"/>
		<path d="m 808.74051,114.09357 c -17.68421,0 -25.45029,-12.35088 -25.45029,-22.736846 0,-10.292397 7.76608,-22.643275 25.45029,-22.643275 8.98246,0 15.15789,4.77193 15.15789,4.77193 l 7.48539,-14.97076 c 0,0 -8.60819,-7.111112 -25.35673,-7.111112 -21.89474,0 -41.82456,17.964913 -41.82456,40.140352 0,22.081871 20.02339,39.859651 41.82456,39.859651 16.74854,0 25.35673,-7.11111 25.35673,-7.11111 l -7.48539,-14.97076 c 0,0 -6.17543,4.77193 -15.15789,4.77193 z"/>
		<path d="m 860.79605,99.029239 h 24.88889 V 130 h 17.59065 V 52.807016 H 885.68494 V 83.590642 H 860.79605 V 52.807016 H 843.20541 V 130 h 17.59064 z"/>
		<path d="m 929.11478,51.403507 c -5.33333,0 -9.63743,4.397661 -9.63743,9.824562 0,4.397661 3.18129,7.766082 7.29825,8.795322 -1.30994,7.111111 -6.45614,11.976608 -6.45614,11.976608 l 4.39766,3.461989 c 6.83041,-5.707603 14.22222,-14.035088 14.22222,-24.233919 0,-5.426901 -4.39766,-9.824562 -9.82456,-9.824562 z"/>
		<path d="m 980.15135,51.403507 c -12.44444,0 -25.16959,9.169591 -25.16959,23.578948 0,8.046784 5.4269,15.251462 14.69006,19.836258 9.16959,4.584795 17.40351,7.111107 17.40351,12.725147 0,7.20468 -7.29825,7.57895 -11.13451,7.57895 -8.60818,0 -18.90058,-8.70176 -18.90058,-8.70176 l -8.79532,14.78363 c 0,0 10.94737,10.19883 29.00585,10.19883 15.06432,0 29.09943,-6.45614 29.09943,-24.88889 0,-10.105264 -9.45031,-17.40351 -18.0585,-21.052632 -8.79532,-3.742691 -16.09357,-6.83041 -16.09357,-11.134504 0,-4.210526 3.18129,-6.923976 9.16959,-6.923976 7.95322,0 15.62574,5.333333 15.62574,5.333333 l 7.11114,-14.035088 c 0,0 -9.91816,-7.298246 -23.95325,-7.298246 z"/>
	</g>
	<g aria-label="MYTHOLOGY">
		<path d="m 434.00292,230 h 17.59064 l -6.92397,-77.19298 h -18.71345 l -17.12281,44.53801 -17.12281,-44.53801 H 372.99707 L 366.07309,230 h 17.59065 l 3.64912,-45.75439 h 0.46784 l 15.81286,45.28655 h 10.47953 l 15.81287,-45.28655 h 0.46784 z"/>
		<path d="m 446.81286,152.80702 28.44445,42.5731 V 230 h 17.59064 v -34.61988 l 28.44445,-42.5731 h -21.1462 l -16.09357,24.70175 -16.09357,-24.70175 z"/>
		<path d="M 524.26462,168.24561 H 542.6038 V 230 h 17.59064 v -61.75439 h 18.33919 v -15.43859 h -54.26901 z"/>
		<path d="m 607.45907,199.02924 h 24.88889 V 230 h 17.59064 v -77.19298 h -17.59064 v 30.78362 H 607.45907 V 152.80702 H 589.86843 V 230 h 17.59064 z"/>
		<path d="m 662.67838,191.35672 c 0,22.54971 16.09357,40.04679 38.92398,40.04679 22.17544,0 38.83041,-17.49708 38.83041,-40.04679 0,-22.5497 -17.40351,-39.95321 -38.83041,-39.95321 -21.23977,0 -38.92398,17.40351 -38.92398,39.95321 z m 18.99415,0 c 0,-11.50877 6.36258,-23.01754 19.92983,-23.01754 13.66082,0 19.83626,11.50877 19.83626,23.01754 0,11.50878 -5.80117,23.01755 -19.83626,23.01755 -14.40936,0 -19.92983,-11.50877 -19.92983,-23.01755 z"/>
		<path d="M 770.78509,152.80702 H 753.19445 V 230 h 44.16374 v -15.4386 h -26.5731 z"/>
		<path d="m 807.54679,191.35672 c 0,22.54971 16.09357,40.04679 38.92398,40.04679 22.17544,0 38.83041,-17.49708 38.83041,-40.04679 0,-22.5497 -17.40351,-39.95321 -38.83041,-39.95321 -21.23977,0 -38.92398,17.40351 -38.92398,39.95321 z m 18.99415,0 c 0,-11.50877 6.36258,-23.01754 19.92983,-23.01754 13.66082,0 19.83626,11.50877 19.83626,23.01754 0,11.50878 -5.80117,23.01755 -19.83626,23.01755 -14.40936,0 -19.92983,-11.50877 -19.92983,-23.01755 z"/>
		<path d="M 967.86403,186.77193 H 932.2149 v 13.56725 h 17.77778 c 0,9.45029 -8.32748,14.87719 -16.74854,14.87719 -10.8538,0 -19.64912,-10.66666 -19.64912,-23.76608 0,-13.38012 8.79532,-24.14035 19.64912,-24.14035 6.83041,0 12.72515,2.71345 17.21638,9.91813 l 11.50877,-12.63158 c -6.73684,-8.14035 -16.18714,-13.19298 -29.75439,-13.19298 -21.7076,0 -37.61403,17.87134 -37.61403,40.04678 0,22.08187 16.8421,39.95322 37.61403,39.95322 15.1579,0 31.4386,-8.32749 35.64913,-27.88304 z"/>
		<path d="m 963.72078,152.80702 28.44445,42.5731 V 230 h 17.59067 v -34.61988 l 28.4444,-42.5731 h -21.1462 l -16.0936,24.70175 -16.09352,-24.70175 z"/>
	</g>
	<g aria-label="THOMAS BULFINCH">
		<path d="m 312.97095,343.68421 h 13.75438 V 390 h 13.19298 v -46.31579 h 13.75439 v -11.57895 h -40.70175 z"/>
		<path d="m 376.61678,366.77193 h 18.66666 V 390 h 13.19299 v -57.89474 h -13.19299 v 23.08772 H 376.61678 V 332.10526 H 363.4238 V 390 h 13.19298 z"/>
		<path d="m 419.28125,361.01754 c 0,16.91228 12.07018,30.03509 29.19299,30.03509 16.63157,0 29.1228,-13.12281 29.1228,-30.03509 0,-16.91228 -13.05263,-29.96491 -29.1228,-29.96491 -15.92983,0 -29.19299,13.05263 -29.19299,29.96491 z m 14.24562,0 c 0,-8.63157 4.77193,-17.26315 14.94737,-17.26315 10.24561,0 14.87719,8.63158 14.87719,17.26315 0,8.63158 -4.35088,17.26316 -14.87719,17.26316 -10.80702,0 -14.94737,-8.63158 -14.94737,-17.26316 z"/>
		<path d="m 536.27797,390 h 13.19298 l -5.19298,-57.89474 h -14.03509 l -12.84211,33.40351 -12.8421,-33.40351 H 490.52358 L 485.3306,390 h 13.19298 l 2.73684,-34.31579 h 0.35088 l 11.85965,33.96491 h 7.85965 l 11.85965,-33.96491 h 0.35087 z"/>
		<path d="M 589.15953,332.10526 H 576.94901 L 553.58059,390 h 14.17543 l 4.28071,-11.57895 h 22.03508 L 598.35252,390 h 14.17543 z m 0.42106,34.73685 H 576.52795 L 582.98409,350 h 0.14036 z"/>
		<path d="m 639.68036,331.05263 c -9.33333,0 -18.87719,6.8772 -18.87719,17.68421 0,6.03509 4.07017,11.4386 11.01754,14.8772 6.8772,3.43859 13.05263,5.33333 13.05263,9.54385 0,5.40351 -5.47368,5.68422 -8.35087,5.68422 -6.45614,0 -14.17544,-6.52632 -14.17544,-6.52632 l -6.59649,11.08772 c 0,0 8.21052,7.64912 21.75438,7.64912 11.29825,0 21.82456,-4.8421 21.82456,-18.66666 0,-7.57895 -7.08772,-13.05264 -13.54386,-15.78948 -6.59649,-2.80702 -12.07017,-5.12281 -12.07017,-8.35088 0,-3.15789 2.38596,-5.19298 6.87719,-5.19298 5.96491,0 11.7193,4 11.7193,4 l 5.33333,-10.52631 c 0,0 -7.43859,-5.47369 -17.96491,-5.47369 z"/>
		<path d="M 694.68477,332.10526 V 390 h 21.96491 c 12,0 18.94737,-6.59649 18.94737,-16.14035 0,-9.33333 -5.12281,-13.33333 -12.35088,-14.59649 4.91228,-2.52632 7.22807,-7.08772 7.22807,-12.42105 0,-11.01755 -7.85965,-14.73685 -17.82456,-14.73685 z m 13.19298,22.66667 V 342.2807 h 1.05263 c 5.75439,0 8.77193,1.75439 8.77193,5.89474 0,4.8421 -3.08772,6.59649 -8.77193,6.59649 z m 0,25.05263 v -13.68421 h 4.14035 c 6.24561,0 9.68421,1.89474 9.68421,7.22807 0,4.5614 -3.4386,6.45614 -9.68421,6.45614 z"/>
		<path d="m 790.91391,332.10526 h -13.19298 v 33.47369 c 0,9.68421 -2.94737,12.49123 -9.40351,12.49123 -6.45614,0 -9.40351,-2.80702 -9.40351,-12.49123 v -33.47369 h -13.19298 v 37.33334 c 0,14.31579 7.85965,21.61403 22.59649,21.61403 14.73684,0 22.59649,-7.29824 22.59649,-21.61403 z"/>
		<path d="M 816.83606,332.10526 H 803.64308 V 390 h 33.12281 v -11.57895 h -19.92983 z"/>
		<path d="M 881.72754,332.10526 H 848.25386 V 390 h 13.19298 v -23.22807 h 18.73684 v -11.57895 h -18.73684 v -11.50877 h 20.2807 z"/>
		<path d="M 906.19464,332.10526 H 893.00166 V 390 h 13.19298 z"/>
		<path d="m 932.85034,354.07018 h 0.14035 L 956.00824,390 h 13.19298 v -57.89474 h -13.19298 v 35.92983 h -0.14035 L 932.85034,332.10526 H 919.65736 V 390 h 13.19298 z"/>
		<path d="m 1011.2483,378.07018 c -13.26314,0 -19.0877,-9.26316 -19.0877,-17.05264 0,-7.71929 5.82456,-16.98245 19.0877,-16.98245 6.7369,0 11.3684,3.57895 11.3684,3.57895 l 5.6141,-11.22807 c 0,0 -6.4562,-5.33334 -19.0176,-5.33334 -16.42103,0 -31.36839,13.47369 -31.36839,30.10527 0,16.5614 15.01754,29.89473 31.36839,29.89473 12.5614,0 19.0176,-5.33333 19.0176,-5.33333 l -5.6141,-11.22807 c 0,0 -4.6315,3.57895 -11.3684,3.57895 z"/>
		<path d="m 1051.54,366.77193 h 18.6666 V 390 h 13.193 v -57.89474 h -13.193 v 23.08772 H 1051.54 v -23.08772 h -13.193 V 390 h 13.193 z"/>
	</g>
</svg>
